<?xml version="1.0" standalone="no"?>
<!DOCTYPE svg PUBLIC "-//W3C//DTD SVG 20010904//EN"
 "http://www.w3.org/TR/2001/REC-SVG-20010904/DTD/svg10.dtd">
<svg version="1.0" xmlns="http://www.w3.org/2000/svg"
 width="512.000000pt" height="512.000000pt" viewBox="0 0 512.000000 512.000000"
 preserveAspectRatio="xMidYMid meet">
<metadata>
Created by potrace 1.14, written by Peter Selinger 2001-2017
</metadata>
<g transform="translate(0.000000,512.000000) scale(0.100000,-0.100000)"
fill="#000000" stroke="none">
<path d="M1634 5106 c-285 -69 -507 -399 -580 -864 -9 -56 -11 -330 -3 -397
57 -481 305 -851 606 -903 277 -48 532 141 681 504 106 256 136 615 76 899
-21 99 -20 95 -43 169 -88 283 -285 519 -486 582 -65 21 -187 25 -251 10z"/>
<path d="M3250 5100 c-172 -53 -310 -182 -420 -394 -208 -400 -206 -974 5
-1373 135 -255 335 -402 545 -398 93 2 167 23 247 72 234 142 395 449 442 838
9 72 6 351 -3 395 -3 13 -8 42 -11 65 -41 280 -195 572 -375 707 -41 31 -142
82 -185 93 -57 15 -188 13 -245 -5z"/>
<path d="M390 3505 c-168 -45 -279 -190 -319 -415 -10 -56 -7 -261 4 -315 29
-138 61 -237 113 -349 116 -247 329 -470 523 -547 384 -151 670 144 617 638
-42 390 -293 785 -598 938 -36 18 -86 39 -110 45 -63 17 -176 20 -230 5z"/>
<path d="M4524 3505 c-231 -49 -493 -301 -624 -602 -79 -179 -113 -331 -113
-503 1 -309 137 -518 363 -555 333 -56 741 328 869 820 31 115 36 164 35 310
-1 111 -5 142 -27 210 -49 151 -118 238 -234 296 -72 36 -169 45 -269 24z"/>
<path d="M2470 2469 c-179 -29 -341 -94 -460 -184 -84 -65 -265 -261 -383
-415 -200 -261 -495 -715 -626 -963 -76 -143 -102 -227 -107 -342 -12 -288
155 -488 456 -546 97 -18 346 -19 420 0 108 26 211 70 325 138 72 43 153 78
202 88 244 51 574 46 739 -10 58 -20 136 -55 155 -72 27 -23 173 -91 249 -117
107 -35 187 -45 340 -41 327 8 529 133 607 374 23 75 25 225 2 312 -36 140
-194 419 -437 779 -97 142 -335 467 -379 515 -10 12 -42 50 -72 85 -194 231
-333 323 -572 380 -104 25 -355 35 -459 19z"/>
</g>
</svg>
